<svg width="303" height="80" viewBox="0 0 303 80" fill="none" xmlns="http://www.w3.org/2000/svg">
<g clip-path="url(#clip0_1_2703)">
<rect width="303" height="80" rx="8.13008" fill="#F7C777"/>
<path opacity="0.7" d="M-40.9274 106.973L7.14959 -49.6322C7.14959 -49.6322 155.705 -55.6096 135.805 -11.2028C115.904 33.2039 62.3546 0.60149 43.6455 34.7853C24.9364 68.9692 40.4701 76.0583 28.9616 95.9962C17.4531 115.934 -40.9274 106.973 -40.9274 106.973Z" fill="#F3B54E"/>
<path opacity="0.7" d="M196.881 -66.755L353.997 -20.371C353.997 -20.371 386.667 162.029 327.668 118.746C268.669 75.463 304.362 35.3729 269.978 17.0339C235.594 -1.30518 228.673 14.304 208.612 3.01139C188.551 -8.28125 196.881 -66.755 196.881 -66.755Z" fill="#F3B54E"/>
<path d="M165.278 57.9699C163.61 57.0166 145.737 56.0634 139.302 58.4465L139.541 69.8852L162.418 69.4086L165.278 57.9699Z" fill="#363C3A"/>
<path d="M138.111 65.5973C146.602 66.3238 141.02 48.9136 141.02 48.9136L160.007 49.1658L160.461 60.8892L166.231 63.9292L157.581 94.9863C157.581 94.9863 129.62 64.8709 138.111 65.5973Z" fill="#D5987B"/>
<path d="M148.041 50.4559C152.896 53.5838 160.338 52.9423 160.338 52.9423L160.622 60.8042L159.826 76.4473L148.041 50.4559Z" fill="#D09173"/>
<path d="M89.2719 46.4415C108.201 38.9475 93.9429 15.2316 120.723 30.6037" stroke="#363C3A" stroke-width="0.238307"/>
<path d="M156.222 82.2777C156.222 82.2777 164.563 75.1285 166.231 64.4047C177.67 66.5495 196.588 75.8435 196.588 75.8435L194.681 49.868L206.12 46.5317C206.12 46.5317 218.274 77.5116 214.937 91.3334C211.601 105.155 183.389 91.3334 183.389 91.3334C183.389 91.3334 167.899 123.505 165.039 140.186C155.03 144.714 140.255 139.233 140.255 139.233L156.222 82.2777Z" fill="#FFFBF0"/>
<path d="M156.699 82.2775C156.699 82.2775 145.498 68.694 144.068 66.3109C142.639 63.9279 138.111 62.7363 135.728 63.2129C133.345 63.6896 124.051 108.253 121.668 114.211C119.284 120.168 104.509 135.658 104.509 135.658C109.037 138.041 120.476 138.041 129.055 143.284C129.055 143.284 144.068 127.556 147.881 125.888C151.456 123.028 155.507 91.5714 156.699 82.2775Z" fill="#FFFBF0"/>
<path d="M160.273 68.4558L155.984 82.5159L163.848 75.3667L160.273 68.4558Z" fill="#E8DCBC"/>
<path d="M156.46 82.0394L150.026 70.839L144.545 75.1285L156.46 82.0394Z" fill="#E8DCBC"/>
<g filter="url(#filter0_d_1_2703)">
<path d="M165.278 57.9705C165.278 57.9705 165.993 59.6387 168.614 63.9282L164.801 80.1331C163.698 74.444 160.035 68.4561 160.035 68.4561L165.278 57.9705Z" fill="white"/>
</g>
<path d="M92.1172 116.833C94.0237 101.343 113.803 67.5031 135.966 64.8817C145.952 66.13 137.794 84.0721 135.966 89.4273L120.237 105.394L145.736 102.772C145.736 102.772 143.353 108.492 145.26 118.501C145.26 118.501 93.0705 131.846 92.1172 116.833Z" fill="#FFFBF0"/>
<g filter="url(#filter1_d_1_2703)">
<path d="M139.302 58.2091C139.302 58.2091 137.131 59.8956 135.013 63.8068L141.622 80.1333L150.264 70.8039L139.302 58.2091Z" fill="white"/>
</g>
<path d="M114.194 -33.5776L102.276 -10.8148L101.924 -4.07313C108.946 -8.23775 131.805 -9.33286 131.805 -9.33286C132.359 -15.6695 139.944 -30.8905 139.944 -30.8905L129.549 -25.7221C127.389 -24.6481 117.404 -21.7037 115.252 -24.3381C113.1 -26.9725 114.194 -33.5776 114.194 -33.5776Z" fill="#FBF6EA"/>
<path d="M99.3299 59.8242C122.971 54.3856 109.148 33.7687 121.786 31.8397" stroke="black" stroke-width="0.476613"/>
<g filter="url(#filter2_i_1_2703)">
<path d="M106.119 26.7894C112.729 22.1394 124.333 31.7979 124.333 31.7979C124.333 31.7979 117.554 34.2429 115.096 35.906C112.639 37.569 116.725 44.9601 109.817 52.0223C102.91 59.0844 84.0378 53.1393 84.0378 53.1393C84.0378 53.1393 94.8848 47.7451 99.1652 42.9915C103.446 38.2378 99.5084 31.4393 106.119 26.7894Z" fill="#363C3A"/>
</g>
<path d="M145.26 51.8911C143.201 50.6847 128.381 36.6116 128.381 36.6116C128.381 36.6116 143.615 16.8413 148.788 21.6006C153.96 26.36 153.637 25.1331 156.426 27.4591C159.216 29.7851 163.218 38.3534 163.218 38.3534C164.239 42.2213 166.68 48.4154 163.31 51.8911C161.6 53.655 147.319 53.0974 145.26 51.8911Z" fill="#E4A688"/>
<g filter="url(#filter3_i_1_2703)">
<path d="M141.687 24.4937C141.687 24.4937 147.713 24.206 149.729 21.9368C149.729 21.9368 140.249 18.0264 130.212 24.5838C117.13 32.8136 123.816 45.6231 130.099 49.6102C136.381 53.5973 137.917 49.158 142.162 53.6828L141.383 49.7607L137.804 41.1521C139.649 33.2827 141.687 24.4937 141.687 24.4937Z" fill="#363C3A"/>
</g>
<path d="M132.381 44.3722C131.627 39.9001 138.5 41.6921 138.5 41.6921L144.389 49.4803C144.389 49.4803 133.136 48.8443 132.381 44.3722Z" fill="#E4A688"/>
<path d="M163.028 38.1278C160.487 38.5102 158.015 37.2009 157.633 34.6598C157.418 33.231 157.645 31.273 158.54 30.2753C160.14 32.3809 161.053 33.5929 163.028 38.1278Z" fill="#DA9B7D"/>
<path d="M153.336 31.4615C153.246 30.5403 155.098 28.4137 156.442 29.2126C157.785 30.0115 153.444 32.5741 153.336 31.4615Z" fill="white"/>
<path d="M144.928 38.7909C144.658 37.7696 146.772 34.4455 148.266 35.1433C149.761 35.8412 146.206 39.91 144.928 38.7909Z" fill="white"/>
<path d="M156.908 38.8538C158.798 37.8951 159.088 37.6415 158.3 36.0103C157.513 34.3792 152.762 33.971 150.512 29.5073" stroke="#363C3A" stroke-width="0.476613"/>
<path d="M148.814 35.1468C146.145 33.7036 144.66 38.708 144.66 38.708" stroke="#363C3A" stroke-width="0.476613"/>
<path d="M156.757 28.9097C154.567 27.7255 153.349 31.8319 153.349 31.8319" stroke="#363C3A" stroke-width="0.476613"/>
<path d="M144.068 30.0887C144.068 30.0887 140.97 31.2802 140.493 37.9528" stroke="#363C3A" stroke-width="1.42984" stroke-linecap="round"/>
<path d="M156.937 25.7996C156.937 25.7996 152.886 20.3186 149.788 26.5145" stroke="#363C3A" stroke-width="1.42984" stroke-linecap="round"/>
<path d="M157.413 43.1963C159.32 42.9579 160.511 42.4813 160.988 40.8132" stroke="#363C3A" stroke-width="0.476613" stroke-linecap="round"/>
<path d="M148.699 35.7531C148.791 36.1033 148.582 36.462 148.232 36.5544C147.882 36.6469 147.523 36.4379 147.431 36.0878C147.338 35.7377 147.547 35.3789 147.897 35.2865C148.248 35.1941 148.606 35.403 148.699 35.7531Z" fill="#363C3A"/>
<circle cx="156.185" cy="29.3559" r="0.570002" transform="rotate(-14.786 156.185 29.3559)" fill="#363C3A"/>
<path d="M132.624 54.5249C144.928 42.9084 142.308 24.6601 142.308 24.6601C142.308 24.6601 151.279 25.3752 158.44 29.2112C158.44 29.2112 158.251 19.6668 150.426 19.9702C142.602 20.2737 140.463 22.3646 140.463 22.3646C140.463 22.3646 135.558 35.6915 134.568 38.5956C133.578 41.4997 132.624 54.5249 132.624 54.5249Z" fill="#363C3A"/>
<path d="M120.593 33.5126L121.5 29.128L124.439 30.1375L123.253 33.3635L120.593 33.5126Z" fill="white"/>
<circle cx="150.264" cy="42.4822" r="3.81291" fill="#DA9B7D"/>
<path d="M201.389 -2L173 12.7296L174.305 42.516C186.379 45.7893 204 31.387 204 31.387L201.389 -2Z" fill="#FFF2D6"/>
<path d="M174 14L184 20.1765M201 0.5L194.542 16M184 20.1765L191 24.5L194.542 16M184 20.1765C182.333 26.2843 178.3 39 175.5 41M194.542 16C196.861 18.8333 201.7 25.6 202.5 30" stroke="#E8DCBC"/>
<path d="M201.24 26.4917C201.853 28.9391 203.6 45.1027 203.6 45.1027L197.897 46.0193C197.897 46.0193 194.063 40.2351 193.167 37.8764C192.271 35.5178 192.855 28.968 192.032 27.8289C191.209 26.6898 185.565 22.5605 185.953 21.8176C186.341 21.0747 192.267 25.1153 192.267 25.1153C192.267 25.1153 187.011 20.2431 187.117 19.5889C187.222 18.9348 193.625 22.5152 193.625 22.5152C193.625 22.5152 187.884 18.5716 188.838 17.6513C189.791 16.7309 195.039 22.0715 195.039 22.0715C195.039 22.0715 190.639 16.4647 191.584 16.0128C192.53 15.5609 200.627 24.0443 201.24 26.4917Z" fill="#D5987B"/>
<path d="M205.268 42.7203L192.4 43.6735L193.353 53.6824C199.31 57.4953 209.081 50.8227 209.081 50.8227L205.268 42.7203Z" fill="white"/>
</g>
<defs>
<filter id="filter0_d_1_2703" x="158.129" y="57.9705" width="12.3919" height="25.9754" filterUnits="userSpaceOnUse" color-interpolation-filters="sRGB">
<feFlood flood-opacity="0" result="BackgroundImageFix"/>
<feColorMatrix in="SourceAlpha" type="matrix" values="0 0 0 0 0 0 0 0 0 0 0 0 0 0 0 0 0 0 127 0" result="hardAlpha"/>
<feOffset dy="1.90645"/>
<feGaussianBlur stdDeviation="0.953227"/>
<feComposite in2="hardAlpha" operator="out"/>
<feColorMatrix type="matrix" values="0 0 0 0 0 0 0 0 0 0 0 0 0 0 0 0 0 0 0.25 0"/>
<feBlend mode="normal" in2="BackgroundImageFix" result="effect1_dropShadow_1_2703"/>
<feBlend mode="normal" in="SourceGraphic" in2="effect1_dropShadow_1_2703" result="shape"/>
</filter>
<filter id="filter1_d_1_2703" x="133.106" y="58.2091" width="19.0645" height="25.7371" filterUnits="userSpaceOnUse" color-interpolation-filters="sRGB">
<feFlood flood-opacity="0" result="BackgroundImageFix"/>
<feColorMatrix in="SourceAlpha" type="matrix" values="0 0 0 0 0 0 0 0 0 0 0 0 0 0 0 0 0 0 127 0" result="hardAlpha"/>
<feOffset dy="1.90645"/>
<feGaussianBlur stdDeviation="0.953227"/>
<feComposite in2="hardAlpha" operator="out"/>
<feColorMatrix type="matrix" values="0 0 0 0 0 0 0 0 0 0 0 0 0 0 0 0 0 0 0.25 0"/>
<feBlend mode="normal" in2="BackgroundImageFix" result="effect1_dropShadow_1_2703"/>
<feBlend mode="normal" in="SourceGraphic" in2="effect1_dropShadow_1_2703" result="shape"/>
</filter>
<filter id="filter2_i_1_2703" x="84.0378" y="25.5237" width="40.2952" height="33.2919" filterUnits="userSpaceOnUse" color-interpolation-filters="sRGB">
<feFlood flood-opacity="0" result="BackgroundImageFix"/>
<feBlend mode="normal" in="SourceGraphic" in2="BackgroundImageFix" result="shape"/>
<feColorMatrix in="SourceAlpha" type="matrix" values="0 0 0 0 0 0 0 0 0 0 0 0 0 0 0 0 0 0 127 0" result="hardAlpha"/>
<feOffset dy="6.19597"/>
<feGaussianBlur stdDeviation="1.66815"/>
<feComposite in2="hardAlpha" operator="arithmetic" k2="-1" k3="1"/>
<feColorMatrix type="matrix" values="0 0 0 0 0 0 0 0 0 0 0 0 0 0 0 0 0 0 0.25 0"/>
<feBlend mode="normal" in2="shape" result="effect1_innerShadow_1_2703"/>
</filter>
<filter id="filter3_i_1_2703" x="122.695" y="20.7798" width="27.0338" height="35.7626" filterUnits="userSpaceOnUse" color-interpolation-filters="sRGB">
<feFlood flood-opacity="0" result="BackgroundImageFix"/>
<feBlend mode="normal" in="SourceGraphic" in2="BackgroundImageFix" result="shape"/>
<feColorMatrix in="SourceAlpha" type="matrix" values="0 0 0 0 0 0 0 0 0 0 0 0 0 0 0 0 0 0 127 0" result="hardAlpha"/>
<feOffset dy="2.85968"/>
<feGaussianBlur stdDeviation="1.90645"/>
<feComposite in2="hardAlpha" operator="arithmetic" k2="-1" k3="1"/>
<feColorMatrix type="matrix" values="0 0 0 0 0 0 0 0 0 0 0 0 0 0 0 0 0 0 0.25 0"/>
<feBlend mode="normal" in2="shape" result="effect1_innerShadow_1_2703"/>
</filter>
<clipPath id="clip0_1_2703">
<rect width="303" height="80" rx="8.13008" fill="white"/>
</clipPath>
</defs>
</svg>
